<?xml version="1.0" standalone="no"?>
<!DOCTYPE svg PUBLIC "-//W3C//DTD SVG 20010904//EN"
 "http://www.w3.org/TR/2001/REC-SVG-20010904/DTD/svg10.dtd">
<svg version="1.0" xmlns="http://www.w3.org/2000/svg"
 width="750.000000pt" height="750.000000pt" viewBox="0 0 750.000000 750.000000"
 preserveAspectRatio="xMidYMid meet">

<g transform="translate(0.000000,750.000000) scale(0.100000,-0.100000)"
fill="#000000" stroke="none">
<path d="M0 3750 l0 -3750 3750 0 3750 0 0 3750 0 3750 -3750 0 -3750 0 0
-3750z m2368 877 c11 -179 28 -230 100 -300 l39 -38 204 99 c216 106 485 214
634 256 187 52 252 61 420 61 141 -1 165 -3 206 -22 87 -40 139 -116 139 -205
0 -101 -95 -288 -217 -425 -26 -30 -31 -32 -75 -26 l-47 5 70 81 c137 159 193
265 194 369 0 60 -3 70 -29 97 -15 16 -51 40 -80 53 -46 20 -66 23 -196 22
-147 0 -259 -17 -404 -61 l-58 -18 68 0 c133 0 204 -47 212 -140 5 -65 -10
-109 -74 -208 -39 -60 -48 -68 -67 -62 -12 4 -32 9 -44 12 -20 5 -18 9 28 66
88 109 114 185 80 229 -68 86 -369 45 -737 -103 -192 -76 -204 -81 -204 -89 0
-4 23 -18 52 -30 53 -23 117 -30 403 -47 l130 -7 -238 -13 c-221 -11 -243 -14
-295 -38 -87 -40 -118 -68 -130 -117 -15 -61 -39 -253 -48 -382 l-7 -108 22 7
c16 5 29 0 48 -19 14 -14 32 -26 39 -26 29 0 11 -17 -50 -47 l-64 -32 -6 -88
c-4 -48 -9 -121 -12 -160 -2 -40 -2 -73 1 -73 26 0 513 263 644 348 62 41 67
42 148 42 45 0 83 -2 83 -4 0 -7 -336 -218 -440 -276 -52 -29 -171 -91 -265
-137 l-170 -83 -7 -48 c-3 -26 -7 -85 -8 -132 -4 -185 -15 -192 -23 -15 -5 93
-10 171 -12 173 -2 2 -45 -13 -97 -33 -356 -141 -724 -217 -908 -186 -36 6
-93 25 -128 42 -120 59 -153 164 -98 315 87 240 459 595 956 912 68 44 126 84
127 89 4 11 -69 48 -117 58 -19 4 -134 13 -255 19 l-220 12 130 8 c341 19 349
20 419 55 79 38 137 101 167 180 18 47 23 93 33 286 12 254 14 249 34 -98z
m1013 -537 c24 -13 26 -69 4 -130 -21 -60 -20 -62 21 -35 68 46 152 27 174
-39 8 -26 5 -48 -16 -121 -33 -114 -32 -111 -11 -107 19 3 23 -19 7 -48 -14
-26 -93 -54 -132 -46 -46 9 -78 43 -78 83 0 18 11 62 25 99 14 36 25 73 25 80
0 22 -38 16 -54 -8 -23 -37 -57 -165 -54 -206 l3 -37 -109 -3 c-123 -3 -142 4
-107 42 15 16 43 90 81 213 54 173 58 190 44 211 -8 12 -12 27 -9 32 16 25
149 39 186 20z m-366 -65 c22 -11 50 -36 63 -55 21 -30 23 -44 19 -100 -9
-130 -88 -251 -183 -281 -51 -16 -372 -25 -386 -11 -8 8 -3 20 14 40 35 42
124 355 110 387 -19 42 0 47 168 43 131 -2 161 -6 195 -23z m836 -96 c19 -19
22 -20 39 -4 11 10 38 20 62 22 36 4 47 1 72 -22 25 -23 28 -31 23 -68 -11
-82 -84 -104 -136 -40 -19 23 -34 34 -39 28 -5 -6 -21 -49 -36 -98 -15 -48
-29 -93 -32 -101 -3 -8 4 -23 16 -34 37 -34 17 -42 -110 -42 -128 0 -146 7
-112 43 11 12 37 75 58 140 35 110 36 118 20 136 -14 15 -14 20 -3 29 44 37
146 43 178 11z m400 11 c26 -15 25 -66 -6 -165 -30 -96 -30 -95 -6 -95 27 0
39 19 66 106 22 71 23 81 10 101 -14 21 -13 24 11 40 32 21 133 29 163 14 30
-16 27 -65 -9 -181 -36 -112 -36 -113 -10 -105 32 10 25 -29 -10 -59 -55 -46
-132 -44 -176 5 -16 18 -17 18 -46 -3 -67 -47 -172 -30 -199 34 -10 26 -8 43
19 131 28 91 30 104 17 124 -16 24 -9 34 36 52 32 13 116 13 140 1z m480 -19
c16 -16 29 -38 29 -48 0 -10 -13 -60 -30 -112 -16 -52 -27 -98 -24 -103 17
-27 83 13 116 69 17 29 17 31 -7 63 -50 68 -21 160 50 160 138 0 108 -212 -47
-326 -96 -71 -205 -80 -266 -24 -34 32 -35 58 -3 164 27 90 28 101 15 121 -14
21 -13 24 12 44 19 15 41 21 76 21 41 0 54 -5 79 -29z m558 19 c19 -5 47 -22
63 -37 23 -22 28 -35 28 -73 0 -26 -7 -69 -15 -96 -19 -63 -19 -76 1 -72 28 5
27 -19 -3 -52 -39 -43 -106 -52 -158 -21 l-36 21 -37 -20 c-108 -58 -221 20
-178 124 8 19 30 45 48 56 29 19 44 21 120 17 l87 -4 11 33 c15 44 9 78 -12
82 -13 3 -18 -3 -18 -22 0 -27 -41 -66 -71 -66 -32 0 -69 23 -75 47 -8 32 17
67 58 80 43 14 144 16 187 3z m475 -1 c46 -13 82 -47 92 -85 6 -25 0 -56 -34
-178 -4 -16 -1 -18 16 -14 16 5 22 2 22 -11 0 -39 -58 -81 -113 -81 -40 0 -97
24 -97 40 0 6 -18 -2 -40 -16 -34 -23 -47 -26 -92 -22 -66 7 -98 39 -98 100 0
87 57 124 180 115 l78 -5 12 28 c16 38 9 84 -12 88 -14 3 -18 -3 -18 -26 0
-35 -17 -51 -62 -58 -38 -7 -88 25 -88 55 0 21 35 56 70 70 34 13 136 13 184
0z"/>
<path d="M2115 4043 c-186 -128 -416 -333 -511 -455 -67 -86 -104 -162 -104
-214 0 -39 4 -47 33 -64 75 -46 290 -15 541 79 181 68 226 91 226 115 0 11 -7
100 -15 196 -25 283 -42 372 -73 389 -13 7 -36 -4 -97 -46z"/>
<path d="M1399 3455 c-174 -194 -257 -335 -266 -455 -6 -70 20 -113 92 -149
47 -25 58 -26 195 -25 113 1 166 6 240 23 176 42 304 83 484 153 l179 71 -7
151 c-4 83 -9 152 -10 154 -2 1 -43 -13 -90 -33 -207 -83 -393 -127 -546 -129
-92 -1 -111 2 -153 23 -50 24 -87 77 -87 124 0 35 26 103 60 159 16 26 26 48
21 48 -5 0 -55 -52 -112 -115z"/>
<path d="M2801 3828 c-23 -84 -45 -161 -47 -170 -4 -14 1 -18 24 -18 57 0 104
77 133 218 17 81 6 116 -37 120 l-30 3 -43 -153z"/>
<path d="M5132 3718 c-19 -19 -15 -58 6 -58 16 0 26 13 50 63 5 12 -43 8 -56
-5z"/>
<path d="M5600 3709 c-14 -25 -6 -49 14 -49 13 0 46 47 46 65 0 15 -51 2 -60
-16z"/>
</g>
</svg>
