<?xml version="1.0" standalone="no"?>
<!DOCTYPE svg PUBLIC "-//W3C//DTD SVG 20010904//EN"
 "http://www.w3.org/TR/2001/REC-SVG-20010904/DTD/svg10.dtd">
<svg version="1.0" xmlns="http://www.w3.org/2000/svg"
 width="750.000000pt" height="750.000000pt" viewBox="0 0 750.000000 750.000000"
 preserveAspectRatio="xMidYMid meet">

<g transform="translate(0.000000,750.000000) scale(0.100000,-0.100000)"
fill="#000000" stroke="none">
<path d="M2337 4745 c-4 -104 -13 -215 -18 -245 -22 -110 -86 -193 -191 -246
-56 -28 -91 -33 -413 -51 l-120 -7 220 -12 c239 -12 258 -15 325 -50 70 -37
91 -59 105 -116 14 -52 38 -262 51 -443 l6 -90 -47 -23 c-117 -57 -358 -138
-479 -162 -87 -18 -196 -17 -231 0 -46 23 -58 57 -40 118 24 79 89 167 224
303 132 131 244 225 373 312 123 83 90 74 -45 -12 -290 -184 -478 -331 -677
-531 -218 -217 -310 -370 -310 -514 0 -54 4 -69 29 -103 79 -109 202 -144 422
-123 201 20 416 75 657 167 79 30 145 53 148 51 2 -3 7 -78 11 -169 6 -125 9
-152 14 -114 4 28 8 91 8 140 2 170 -12 151 185 248 227 113 331 171 511 286
137 88 156 97 215 104 36 4 76 7 90 6 14 0 134 -1 268 -2 l244 -2 29 33 c31
34 36 66 18 106 -17 37 -4 78 24 74 19 -3 23 -11 28 -56 8 -63 27 -94 79 -128
49 -33 104 -40 179 -24 45 9 63 9 80 0 36 -18 134 -14 178 8 37 20 39 20 73 1
25 -13 57 -18 110 -19 64 0 84 5 135 30 33 16 67 35 77 42 13 10 22 6 51 -19
48 -42 98 -57 161 -48 50 7 67 7 196 2 50 -1 73 2 94 16 27 18 29 18 72 -2 48
-23 99 -26 157 -10 28 8 51 7 86 -2 91 -23 180 8 229 81 19 29 22 43 18 80 -8
62 -8 66 0 142 6 56 3 73 -15 110 -26 54 -67 86 -135 104 -117 31 -247 10
-305 -50 l-34 -35 -38 34 c-47 43 -122 65 -213 65 -75 -1 -135 -17 -166 -45
-17 -15 -21 -15 -59 11 -52 34 -125 43 -169 20 -28 -14 -34 -14 -68 0 -29 12
-54 14 -99 9 -33 -4 -78 -6 -100 -5 -41 2 -130 3 -220 2 -27 -1 -81 -1 -120 0
-38 0 -92 0 -120 -1 -27 0 -79 0 -115 0 -36 0 -75 -1 -88 -1 -13 -1 -26 0 -28
3 -3 3 25 43 63 90 163 205 224 372 175 478 -37 78 -79 111 -173 135 -83 21
-283 14 -424 -16 -206 -43 -504 -155 -814 -306 l-174 -85 -39 38 c-21 21 -51
62 -65 92 -24 48 -28 71 -35 215 -17 303 -23 326 -31 111z m1574 -104 c20 -6
56 -29 80 -50 44 -39 44 -39 44 -107 0 -56 -6 -81 -31 -134 -44 -90 -100 -170
-193 -270 -60 -65 -89 -89 -119 -98 -23 -7 -44 -17 -47 -22 -3 -5 -26 2 -52
15 -25 14 -57 25 -69 25 -18 0 -24 6 -24 23 0 29 -33 82 -64 102 l-25 17 39
51 c120 161 131 299 28 353 -20 11 -68 20 -123 23 l-90 6 55 17 c70 21 178 46
255 57 76 12 288 7 336 -8z m-497 -134 c21 -7 48 -24 59 -39 18 -24 19 -31 7
-73 -20 -71 -151 -245 -185 -245 -6 0 -34 -7 -62 -15 -54 -16 -103 -57 -103
-86 0 -17 -3 -17 -45 6 -70 37 -142 47 -301 43 -141 -3 -144 -3 -171 -31 -25
-24 -28 -35 -29 -95 -1 -85 -64 -302 -100 -345 -13 -15 -24 -33 -24 -39 0 -17
-31 -48 -48 -48 -13 0 -14 16 -8 113 9 137 33 329 48 380 13 44 49 75 131 112
51 24 74 27 249 36 274 13 276 14 143 22 -283 16 -350 24 -398 45 -26 11 -47
25 -47 30 0 10 162 80 297 128 273 98 478 133 587 101z m-16 -453 c27 -19 28
-44 2 -119 -11 -32 -20 -60 -20 -62 0 -3 14 6 31 18 18 13 52 24 80 27 43 4
51 1 79 -26 37 -38 38 -65 5 -169 -30 -96 -31 -106 -5 -98 27 8 26 -14 -1 -48
-43 -56 -159 -57 -195 -2 -19 30 -14 66 22 155 27 66 23 87 -15 75 -30 -9 -91
-197 -73 -226 7 -11 10 -24 7 -29 -9 -14 -222 -13 -230 1 -4 6 2 20 13 32 11
13 44 103 77 212 45 150 55 193 46 207 -17 28 -13 38 22 53 44 19 127 19 155
-1z m-405 -45 c81 -22 134 -103 120 -183 -15 -89 -57 -180 -100 -218 -10 -10
-41 -27 -68 -40 -44 -19 -71 -23 -222 -26 -154 -4 -173 -2 -179 12 -4 11 2 26
16 41 31 33 122 352 108 378 -22 42 -7 47 144 47 79 0 160 -5 181 -11z m871
-110 l26 -20 26 20 c15 12 41 21 59 21 18 0 44 -9 59 -21 54 -43 22 -149 -46
-149 -27 0 -51 17 -75 56 -12 18 -13 18 -26 2 -8 -10 -27 -61 -42 -113 -27
-91 -28 -96 -11 -114 10 -11 15 -25 11 -30 -8 -13 -241 -15 -249 -2 -3 5 5 20
17 33 13 14 37 71 57 136 29 97 32 115 20 136 -16 30 -8 43 33 55 57 16 112
13 141 -10z m404 5 c28 -19 28 -41 -3 -139 -31 -102 -32 -117 -2 -113 18 2 27
18 51 91 25 75 27 91 16 111 -16 31 -8 43 38 56 86 24 162 3 162 -44 0 -12
-13 -65 -30 -116 -36 -115 -37 -130 -10 -123 23 6 24 4 10 -32 -13 -34 -90
-69 -133 -61 -17 4 -43 18 -58 32 l-26 25 -38 -25 c-81 -55 -195 -16 -195 66
0 13 12 63 26 112 22 74 24 92 14 111 -7 13 -9 28 -6 34 19 29 148 40 184 15z
m461 1 c49 -25 52 -55 16 -175 -30 -101 -31 -110 -4 -110 30 0 72 33 94 73 18
34 18 35 -3 64 -29 41 -36 78 -22 114 24 58 84 66 132 19 27 -28 30 -36 26
-79 -10 -104 -105 -220 -213 -260 -69 -26 -98 -26 -152 -1 -68 30 -72 52 -39
181 22 83 26 113 17 122 -46 46 77 89 148 52z m584 1 c82 -30 100 -77 72 -184
-10 -37 -20 -73 -23 -81 -4 -10 0 -13 16 -9 15 4 22 2 22 -9 0 -71 -126 -111
-186 -59 l-28 23 -34 -23 c-61 -42 -154 -26 -180 31 -21 46 -15 82 22 123 l35
37 98 0 98 0 14 43 c10 34 10 46 1 57 -17 21 -30 19 -30 -4 0 -36 -35 -66 -78
-66 -48 0 -72 18 -72 55 0 29 21 53 60 69 36 14 149 12 193 -3z m483 -5 c77
-35 91 -86 54 -203 -11 -34 -20 -64 -20 -66 0 -2 10 -2 23 0 17 2 21 -1 19
-17 -12 -68 -137 -100 -193 -49 -19 17 -21 17 -58 -4 -23 -13 -56 -22 -81 -22
-34 0 -48 6 -76 34 -40 40 -44 75 -14 123 32 52 71 67 166 60 l81 -6 12 40 c7
22 9 49 6 59 -9 28 -35 25 -35 -3 0 -35 -35 -62 -80 -62 -46 0 -70 19 -70 55
0 31 25 57 66 70 53 15 156 11 200 -9z m-4302 -373 c-48 -74 -70 -150 -55
-198 25 -83 92 -115 236 -113 146 2 387 62 573 143 29 12 55 21 57 18 2 -2 7
-72 11 -154 l7 -150 -129 -53 c-175 -73 -269 -104 -429 -146 -323 -83 -541
-71 -613 36 -52 75 -4 231 125 400 65 87 231 269 243 269 5 0 -7 -24 -26 -52z
m1532 -37 l25 -20 -58 -38 c-90 -61 -273 -163 -450 -252 -90 -44 -165 -81
-168 -81 -5 0 1 135 11 258 6 61 6 63 47 83 37 19 60 22 246 23 208 3 213 3
319 45 2 0 15 -8 28 -18z"/>
<path d="M2863 3947 c-12 -18 -101 -331 -96 -339 7 -13 68 12 89 36 51 58 95
268 62 293 -23 18 -47 22 -55 10z"/>
<path d="M5140 3679 c-14 -25 -6 -49 14 -49 16 0 46 37 46 57 0 21 -48 15 -60
-8z"/>
<path d="M5622 3688 c-17 -17 -15 -58 2 -58 16 0 46 37 46 57 0 16 -32 17 -48
1z"/>
</g>
</svg>
